<svg width="64" height="65" viewBox="0 0 64 65" fill="none" xmlns="http://www.w3.org/2000/svg">
<path d="M20.2371 29.4628C20.2371 29.6378 20.2308 29.8128 20.2183 29.9878C20.2121 30.0753 20.1996 30.1566 20.1933 30.2441C20.1871 30.2816 20.1683 30.4253 20.1933 30.2503C20.1433 30.5816 20.0683 30.9128 19.9746 31.2378C19.9246 31.4003 19.8746 31.5566 19.8121 31.7128C19.7933 31.7628 19.7746 31.8128 19.7496 31.8691C19.8308 31.6753 19.7246 31.9253 19.7121 31.9503C19.5746 32.2503 19.4121 32.5378 19.2371 32.8128C19.1621 32.9253 19.0808 33.0378 19.0058 33.1503C18.8496 33.3691 19.1246 33.0128 18.9558 33.2191C18.9058 33.2816 18.8496 33.3441 18.7996 33.4066C18.5933 33.6441 18.3746 33.8628 18.1371 34.0691C18.0871 34.1128 18.0371 34.1566 17.9808 34.2003C17.9621 34.2128 17.7496 34.3816 17.9121 34.2566C17.8058 34.3378 17.6933 34.4191 17.5808 34.4941C17.3058 34.6753 17.0246 34.8378 16.7246 34.9816C16.6496 35.0191 16.5746 35.0503 16.4996 35.0878C16.6933 35.0003 16.4371 35.1128 16.4183 35.1191C16.2871 35.1691 16.1558 35.2128 16.0246 35.2566C15.6996 35.3566 15.3746 35.4253 15.0433 35.4878C14.7683 35.5378 15.2308 35.4753 14.9558 35.5003L14.7871 35.5191C14.6121 35.5316 14.4371 35.5441 14.2683 35.5441C14.0996 35.5441 13.9308 35.5441 13.7621 35.5316C13.4808 35.5128 13.3996 35.5066 13.1933 35.4691C12.4371 35.3316 11.8621 35.1316 11.2558 34.7941C10.5871 34.4191 10.1683 34.0878 9.64958 33.5128C9.38083 33.2128 9.33083 33.1566 9.11833 32.8191C8.91208 32.5066 8.73083 32.1753 8.58708 31.8316C8.64958 31.9691 8.56833 31.7816 8.55583 31.7503C8.52458 31.6753 8.49958 31.6003 8.47458 31.5253C8.41208 31.3441 8.35583 31.1628 8.31208 30.9753C8.20583 30.5628 8.17458 30.3691 8.14958 30.0253C8.08708 29.2316 8.14333 28.6566 8.31208 27.9816C8.36208 27.7941 8.41208 27.6128 8.47458 27.4316C8.49333 27.3691 8.51833 27.3128 8.53708 27.2503C8.53708 27.2503 8.65583 26.9628 8.58708 27.1253C8.73708 26.7816 8.91833 26.4503 9.11833 26.1378C9.78708 25.1066 10.9371 24.1816 12.1183 23.7691C12.8996 23.4941 13.4808 23.4003 14.2746 23.4128C14.4371 23.4128 14.5933 23.4253 14.7496 23.4378C14.8183 23.4441 14.8933 23.4503 14.9621 23.4566C15.2433 23.4816 14.7746 23.4191 15.0496 23.4691C15.3808 23.5316 15.7121 23.6003 16.0308 23.7003C16.1871 23.7503 16.3433 23.8066 16.4996 23.8691C16.7558 23.9628 16.3371 23.7878 16.5808 23.9003C16.6683 23.9441 16.7558 23.9816 16.8433 24.0253C17.1496 24.1816 17.4433 24.3566 17.7246 24.5503C17.7933 24.6003 17.8558 24.6441 17.9246 24.6941C17.7621 24.5691 18.0246 24.7816 18.0558 24.8003C18.1808 24.9066 18.2996 25.0128 18.4183 25.1316C18.5371 25.2441 18.6496 25.3628 18.7558 25.4878C18.8121 25.5503 18.8621 25.6128 18.9183 25.6753C18.9558 25.7191 18.9871 25.7566 19.0183 25.8003C18.9558 25.7191 18.9558 25.7191 19.0183 25.8066C19.2058 26.0753 19.3871 26.3441 19.5433 26.6378C19.6371 26.8066 19.7183 26.9816 19.7933 27.1566C19.7246 26.9941 19.7808 27.1316 19.7933 27.1628C19.8308 27.2691 19.8746 27.3691 19.9058 27.4753C20.0246 27.8191 20.1121 28.1753 20.1746 28.5316C20.1746 28.5253 20.2183 28.8003 20.1933 28.6628C20.1808 28.5566 20.2121 28.8503 20.2121 28.8816C20.2308 29.0566 20.2371 29.2566 20.2371 29.4628C20.2371 29.9503 20.6683 30.4253 21.1746 30.4003C21.6808 30.3753 22.1183 29.9878 22.1121 29.4628C22.0933 26.4441 20.3308 23.5503 17.5621 22.2816C14.4308 20.8441 10.6058 21.5378 8.28083 24.1378C5.93708 26.7628 5.54958 30.7628 7.48708 33.7441C9.38708 36.6753 13.0808 38.0878 16.4433 37.0753C19.3121 36.2128 21.5808 33.6941 22.0058 30.7066C22.0683 30.2941 22.1058 29.8816 22.1121 29.4628C22.1121 28.9753 21.6808 28.5003 21.1746 28.5253C20.6621 28.5441 20.2433 28.9316 20.2371 29.4628Z" fill="#4A4A4A"/>
<path d="M56.8313 59.4628H23.2313C22.7813 59.4628 22.3188 59.4378 21.8688 59.4628H21.8125C22.1125 59.694 22.4125 59.919 22.7188 60.1503C22.4625 59.3565 22.2125 58.5565 21.9563 57.7628C21.35 55.8628 20.7438 53.9565 20.1375 52.0565C19.4063 49.7565 18.6688 47.4565 17.9375 45.1565C17.3 43.1628 16.6625 41.1628 16.025 39.169C15.7188 38.2065 15.4625 37.2128 15.1 36.2753C15.0938 36.2628 15.0938 36.2503 15.0875 36.2315C14.7875 36.6253 14.4875 37.0253 14.1813 37.419H47.7813C48.2313 37.419 48.6938 37.444 49.1438 37.419H49.2C48.9 37.1878 48.6 36.9628 48.2938 36.7315C48.55 37.5253 48.8 38.3253 49.0563 39.119C49.6625 41.019 50.2688 42.9253 50.875 44.8253C51.6063 47.1253 52.3438 49.4253 53.075 51.7253C53.7125 53.719 54.35 55.719 54.9875 57.7128C55.2938 58.6753 55.5813 59.6503 55.9125 60.6065C55.9188 60.619 55.9188 60.6315 55.925 60.6503C56.0813 61.1315 56.575 61.444 57.0813 61.3065C57.5563 61.1753 57.8875 60.6378 57.7375 60.1503C57.4813 59.3565 57.2313 58.5565 56.975 57.7628C56.3688 55.8628 55.7625 53.9565 55.1563 52.0565C54.425 49.7565 53.6875 47.4565 52.9563 45.1565C52.3188 43.1628 51.6813 41.1628 51.0438 39.169C50.7375 38.2065 50.4563 37.2253 50.1188 36.2753C50.1125 36.2628 50.1125 36.2503 50.1063 36.2315C49.9813 35.8378 49.625 35.544 49.2 35.544H18.475C17.0625 35.544 15.65 35.5065 14.2375 35.544H14.1813C13.5938 35.544 13.0875 36.144 13.275 36.7315C13.5313 37.5253 13.7813 38.3253 14.0375 39.119C14.6438 41.019 15.25 42.9253 15.8563 44.8253C16.5875 47.1253 17.325 49.4253 18.0563 51.7253C18.6938 53.719 19.3313 55.719 19.9688 57.7128C20.275 58.6753 20.5563 59.6565 20.8938 60.6065C20.9 60.619 20.9 60.6315 20.9063 60.6503C21.0313 61.044 21.3875 61.3378 21.8125 61.3378H52.5375C53.95 61.3378 55.3625 61.3753 56.775 61.3378H56.8313C57.3188 61.3378 57.7938 60.9065 57.7688 60.4003C57.7438 59.894 57.3563 59.4628 56.8313 59.4628Z" fill="#4A4A4A"/>
<path d="M46.0619 60.1503C45.8056 59.3566 45.5556 58.5566 45.2994 57.7628C44.6931 55.8628 44.0869 53.9566 43.4806 52.0566C42.7494 49.7566 42.0119 47.4566 41.2806 45.1566C40.6431 43.1628 40.0056 41.1628 39.3681 39.1691C39.0619 38.2066 38.7743 37.2316 38.4431 36.2753C38.4368 36.2628 38.4369 36.2503 38.4306 36.2316C38.2744 35.7503 37.7806 35.4378 37.2744 35.5753C36.7994 35.7066 36.4681 36.2441 36.6181 36.7316C36.8744 37.5253 37.1243 38.3253 37.3806 39.1191C37.9868 41.0191 38.5931 42.9253 39.1994 44.8253C39.9306 47.1253 40.6681 49.4253 41.3994 51.7253C42.0369 53.7191 42.6744 55.7191 43.3119 57.7128C43.6181 58.6753 43.9056 59.6503 44.2369 60.6066C44.2431 60.6191 44.2431 60.6316 44.2494 60.6503C44.4056 61.1316 44.8994 61.4441 45.4056 61.3066C45.8806 61.1753 46.2119 60.6378 46.0619 60.1503ZM34.3806 60.1503C34.1243 59.3566 33.8744 58.5566 33.6181 57.7628C33.0119 55.8628 32.4056 53.9566 31.7994 52.0566C31.0681 49.7566 30.3306 47.4566 29.5994 45.1566C28.9619 43.1628 28.3244 41.1628 27.6869 39.1691C27.3806 38.2066 27.0931 37.2316 26.7619 36.2753C26.7556 36.2628 26.7556 36.2503 26.7494 36.2316C26.5931 35.7503 26.0994 35.4378 25.5931 35.5753C25.1181 35.7066 24.7869 36.2441 24.9369 36.7316C25.1931 37.5253 25.4431 38.3253 25.6994 39.1191C26.3056 41.0191 26.9118 42.9253 27.5181 44.8253C28.2494 47.1253 28.9869 49.4253 29.7181 51.7253C30.3556 53.7191 30.9931 55.7191 31.6306 57.7128C31.9369 58.6753 32.2244 59.6503 32.5556 60.6066C32.5619 60.6191 32.5618 60.6316 32.5681 60.6503C32.7243 61.1316 33.2181 61.4441 33.7243 61.3066C34.2056 61.1753 34.5368 60.6378 34.3806 60.1503Z" fill="#4A4A4A"/>
<path d="M55.2617 29.4566C55.2617 29.6441 55.2554 29.8316 55.2367 30.0191C55.2304 30.1129 55.2179 30.2066 55.2117 30.2941C55.2367 30.1004 55.1929 30.4004 55.1929 30.4129C55.1304 30.7691 55.0429 31.1254 54.9242 31.4691C54.9054 31.5254 54.8867 31.5816 54.8617 31.6379C54.8554 31.6504 54.7492 31.9254 54.8242 31.7441C54.7554 31.9066 54.6742 32.0691 54.5929 32.2254C54.4304 32.5379 54.2367 32.8379 54.0304 33.1254C53.8617 33.3566 54.1429 32.9941 53.9617 33.2129C53.9242 33.2566 53.8867 33.3003 53.8492 33.3503C53.7367 33.4816 53.6117 33.6129 53.4867 33.7379C53.3617 33.8629 53.2304 33.9816 53.0992 34.1003C53.0554 34.1378 53.0117 34.1754 52.9617 34.2129C52.8742 34.2816 52.8679 34.2879 52.9429 34.2316C52.8929 34.2691 52.8492 34.3004 52.7992 34.3379C52.5367 34.5254 52.2554 34.7003 51.9679 34.8503C51.6179 35.0378 51.3867 35.1316 50.9804 35.2504C50.1242 35.5129 49.3179 35.5191 48.3992 35.5191H15.9742C15.3992 35.5191 14.8117 35.4941 14.2367 35.5191H14.1617V37.3941C17.4992 37.3753 20.4554 35.2691 21.6242 32.1566C22.7679 29.1129 21.7929 25.4754 19.2929 23.3941C17.8429 22.1879 16.0492 21.5191 14.1617 21.5066V23.3816H49.1804C50.5429 23.3879 51.7242 23.8004 52.8617 24.6191C53.0929 24.7879 52.7367 24.5066 52.9492 24.6879C52.9929 24.7254 53.0367 24.7629 53.0867 24.8004C53.2179 24.9129 53.3492 25.0379 53.4742 25.1629C53.5867 25.2754 53.6992 25.3941 53.8054 25.5191C53.8554 25.5754 53.8992 25.6316 53.9492 25.6879C54.0179 25.7754 54.0242 25.7816 53.9679 25.7066C54.0054 25.7566 54.0367 25.8004 54.0742 25.8504C54.2617 26.1129 54.4367 26.3941 54.5867 26.6816C54.6679 26.8379 54.7492 27.0004 54.8179 27.1629C54.7554 27.0129 54.8242 27.1941 54.8429 27.2316C54.8804 27.3316 54.9179 27.4316 54.9492 27.5316C55.1992 28.2879 55.2617 28.7191 55.2617 29.4566C55.2679 29.9441 55.6929 30.4191 56.1992 30.3941C56.7054 30.3691 57.1429 29.9816 57.1367 29.4566C57.1179 26.3816 55.2929 23.4691 52.4554 22.2191C51.2117 21.6691 49.9179 21.5129 48.5804 21.5129H19.6742C17.8679 21.5129 16.0492 21.4691 14.2429 21.5129H14.1679C13.6804 21.5129 13.2054 21.9441 13.2304 22.4504C13.2554 22.9629 13.6429 23.3816 14.1679 23.3879C14.3429 23.3879 14.5179 23.3941 14.6929 23.4066C14.7804 23.4129 14.8617 23.4254 14.9492 23.4316C15.2304 23.4566 14.7617 23.3941 15.0367 23.4441C15.3992 23.5129 15.7492 23.5879 16.0992 23.7004C16.2554 23.7504 16.4117 23.8066 16.5679 23.8754C16.3742 23.7941 16.6242 23.9004 16.6492 23.9129C16.7242 23.9504 16.7992 23.9816 16.8742 24.0191C17.1804 24.1754 17.4742 24.3504 17.7492 24.5504C17.8054 24.5879 17.8617 24.6316 17.9117 24.6691C17.7429 24.5441 17.9617 24.7066 17.9804 24.7254C18.1054 24.8316 18.2304 24.9379 18.3429 25.0504C18.4617 25.1629 18.5742 25.2816 18.6867 25.4004C18.7429 25.4629 18.7929 25.5191 18.8492 25.5816C18.8742 25.6066 19.0804 25.8754 18.9554 25.7129C19.1492 25.9754 19.3304 26.2504 19.4929 26.5379C19.5742 26.6816 19.6492 26.8254 19.7179 26.9754C19.7304 27.0004 19.8367 27.2504 19.7554 27.0566C19.7992 27.1566 19.8367 27.2629 19.8742 27.3691C19.9742 27.6566 20.0617 27.9566 20.1242 28.2566C20.1429 28.3379 20.1554 28.4254 20.1742 28.5066C20.1804 28.5316 20.2179 28.8129 20.1929 28.5941C20.2179 28.7941 20.2367 28.9941 20.2429 29.1941C20.2554 29.5441 20.2367 29.8879 20.2054 30.2379C20.1804 30.5191 20.2429 30.0504 20.1929 30.3254C20.1804 30.4066 20.1617 30.4941 20.1492 30.5754C20.1117 30.7691 20.0617 30.9566 20.0117 31.1504C19.9742 31.2816 19.9304 31.4191 19.8867 31.5504C19.8617 31.6316 19.8304 31.7066 19.7992 31.7816C19.7054 32.0379 19.8804 31.6191 19.7679 31.8629C19.6117 32.1879 19.4492 32.5003 19.2554 32.8004C19.1679 32.9378 19.0742 33.0691 18.9742 33.2004C19.0992 33.0316 18.9367 33.2503 18.9179 33.2691C18.8679 33.3316 18.8117 33.3941 18.7554 33.4566C18.5179 33.7191 18.2679 33.9691 17.9929 34.1941C17.9742 34.2066 17.7617 34.3754 17.9242 34.2504C17.8617 34.3004 17.7929 34.3504 17.7242 34.3941C17.5679 34.5066 17.4054 34.6066 17.2429 34.7066C17.0804 34.8066 16.9054 34.8941 16.7367 34.9753C16.6617 35.0128 16.5867 35.0441 16.5117 35.0816C16.7054 34.9941 16.3867 35.1316 16.3492 35.1441C15.9804 35.2816 15.6054 35.3816 15.2179 35.4566C15.1367 35.4691 15.0492 35.4879 14.9679 35.5004C15.1804 35.4691 14.8304 35.5129 14.7929 35.5191C14.5929 35.5379 14.3867 35.5441 14.1867 35.5441C13.6992 35.5441 13.2242 35.9754 13.2492 36.4816C13.2742 36.9879 13.6617 37.4191 14.1867 37.4191H48.1429C48.7179 37.4191 49.3054 37.4441 49.8804 37.3879C53.1117 37.0816 55.8992 34.8566 56.8304 31.7316C57.0492 31.0066 57.1492 30.2316 57.1554 29.4754C57.1617 28.9879 56.7242 28.5129 56.2179 28.5379C55.6929 28.5441 55.2679 28.9316 55.2617 29.4566Z" fill="#4A4A4A"/>
<path d="M42.0181 18.2941C42.0056 19.6191 41.6369 20.8503 40.8994 21.9816C41.1681 21.8253 41.4369 21.6691 41.7119 21.5191H29.0431C29.3119 21.6753 29.5806 21.8316 29.8556 21.9816C29.2806 21.0941 28.9181 20.2128 28.7806 19.1191C28.7806 19.1441 28.7931 19.2128 28.7806 19.1003C28.7744 19.0316 28.7681 18.9566 28.7619 18.8878C28.7494 18.7628 28.7431 18.6378 28.7431 18.5066C28.7369 18.2566 28.7431 18.0128 28.7556 17.7628C28.7619 17.6628 28.7744 17.5628 28.7806 17.4628C28.7806 17.4378 28.8056 17.2566 28.7931 17.3753C28.7744 17.4941 28.8056 17.3191 28.8056 17.2878C28.8431 17.0628 28.8869 16.8441 28.9431 16.6253C28.9931 16.4378 29.0494 16.2503 29.1119 16.0628C29.1494 15.9566 29.1869 15.8566 29.2244 15.7503C29.2369 15.7128 29.2556 15.6753 29.2681 15.6378C29.1994 15.8066 29.2744 15.6316 29.2869 15.5941C29.4681 15.2128 29.6744 14.8378 29.9119 14.4878C29.9681 14.4066 30.0181 14.3316 30.0744 14.2566C30.0869 14.2378 30.1931 14.1003 30.1244 14.1878C30.0619 14.2691 30.1431 14.1628 30.1494 14.1566C30.2931 13.9941 30.4306 13.8253 30.5806 13.6691C30.7244 13.5253 30.8681 13.3816 31.0244 13.2503C31.0931 13.1878 31.1681 13.1253 31.2431 13.0691C31.3744 12.9566 31.2744 13.0441 31.2431 13.0628C31.2994 13.0191 31.3494 12.9816 31.4056 12.9441C31.7494 12.6941 32.1119 12.4753 32.4931 12.2878C32.5806 12.2441 32.6681 12.2066 32.7556 12.1628C32.8869 12.1003 32.6244 12.2128 32.7619 12.1628C32.7994 12.1503 32.8369 12.1316 32.8744 12.1191C33.0806 12.0378 33.2931 11.9691 33.5056 11.9066C33.7056 11.8503 33.9119 11.8003 34.1181 11.7566C34.2181 11.7378 34.3119 11.7191 34.4119 11.7066C34.5931 11.6753 34.4556 11.7003 34.4181 11.7066C34.4869 11.7003 34.5619 11.6878 34.6306 11.6816C35.0806 11.6378 35.5306 11.6316 35.9744 11.6691C36.0744 11.6753 36.1744 11.6878 36.2744 11.7003C36.3869 11.7128 36.2494 11.7003 36.2369 11.6941C36.2931 11.7003 36.3494 11.7128 36.4056 11.7191C36.6244 11.7566 36.8494 11.8066 37.0681 11.8628C37.2681 11.9191 37.4681 11.9753 37.6681 12.0503C37.7619 12.0816 37.8494 12.1191 37.9369 12.1503C37.9681 12.1628 38.0994 12.2253 37.9431 12.1503C38.0056 12.1753 38.0681 12.2066 38.1306 12.2378C38.4994 12.4128 38.8556 12.6191 39.1931 12.8503C39.2806 12.9128 39.3681 12.9753 39.4556 13.0441C39.5431 13.1066 39.4369 13.0316 39.4244 13.0253C39.4681 13.0566 39.5119 13.0941 39.5494 13.1253C39.7181 13.2628 39.8744 13.4128 40.0306 13.5628C40.1931 13.7253 40.3494 13.8941 40.4994 14.0691C40.5369 14.1128 40.5681 14.1503 40.6056 14.1941C40.6994 14.3128 40.4806 14.0191 40.6369 14.2316C40.6994 14.3191 40.7681 14.4066 40.8244 14.5003C41.0869 14.8878 41.3119 15.2941 41.4994 15.7191C41.4244 15.5441 41.5556 15.8753 41.5744 15.9191C41.6181 16.0378 41.6556 16.1566 41.6931 16.2753C41.7619 16.5003 41.8244 16.7316 41.8744 16.9628C41.8994 17.0753 41.9181 17.1816 41.9369 17.2941C41.9431 17.3191 41.9681 17.5003 41.9494 17.3816C41.9306 17.2566 41.9619 17.4878 41.9619 17.5128C42.0056 17.7753 42.0119 18.0316 42.0181 18.2941C42.0181 18.7816 42.4494 19.2566 42.9556 19.2316C43.4619 19.2066 43.8931 18.8191 43.8931 18.2941C43.8806 16.2003 43.1119 14.1941 41.7306 12.6253C40.4056 11.1191 38.5244 10.1316 36.5369 9.86281C34.4869 9.58781 32.3556 10.0441 30.6431 11.2128C28.9681 12.3566 27.7119 14.0503 27.1681 16.0128C26.5431 18.2691 26.8744 20.8753 28.1744 22.8441C28.3994 23.1878 28.6806 23.3816 29.0994 23.3941H41.1994C41.3681 23.3941 41.5431 23.4066 41.7119 23.3941C42.4306 23.3503 42.7556 22.6128 43.0306 22.0378C43.3056 21.4628 43.5306 20.8628 43.6744 20.2441C43.8181 19.6066 43.8931 18.9441 43.8994 18.2941C43.9056 17.8066 43.4681 17.3316 42.9619 17.3566C42.4431 17.3816 42.0181 17.7691 42.0181 18.2941ZM36.3244 7.33781V4.60031C36.3244 4.11281 35.8931 3.63781 35.3869 3.66281C34.8806 3.68781 34.4494 4.07531 34.4494 4.60031V7.33781C34.4494 7.82531 34.8806 8.30031 35.3869 8.27531C35.8931 8.25031 36.3244 7.86281 36.3244 7.33781ZM28.1181 9.70031L26.3619 7.94406C26.0056 7.58781 25.3931 7.58781 25.0369 7.94406C24.6806 8.30031 24.6806 8.91281 25.0369 9.26906L26.7931 11.0253C27.1494 11.3816 27.7619 11.3816 28.1181 11.0253C28.4806 10.6691 28.4806 10.0566 28.1181 9.70031ZM43.9556 11.0253L45.7119 9.26906C46.0681 8.91281 46.0681 8.30031 45.7119 7.94406C45.3556 7.58781 44.7431 7.58781 44.3869 7.94406L42.6306 9.70031C42.2744 10.0566 42.2744 10.6691 42.6306 11.0253C42.9869 11.3878 43.5931 11.3816 43.9556 11.0253ZM24.2994 17.3441H21.6806C21.1931 17.3441 20.7181 17.7753 20.7431 18.2816C20.7681 18.7878 21.1556 19.2191 21.6806 19.2191H24.2994C24.7869 19.2191 25.2619 18.7878 25.2369 18.2816C25.2119 17.7753 24.8244 17.3441 24.2994 17.3441ZM49.0681 17.3628H46.4494C45.9619 17.3628 45.4869 17.7941 45.5119 18.3003C45.5369 18.8066 45.9244 19.2378 46.4494 19.2378H49.0681C49.5556 19.2378 50.0306 18.8066 50.0056 18.3003C49.9806 17.7941 49.5931 17.3628 49.0681 17.3628Z" fill="#4A4A4A"/>
</svg>
