<svg width="64" height="65" viewBox="0 0 64 65" fill="none" xmlns="http://www.w3.org/2000/svg">
<path d="M62.366 39.45C61.7771 38.4667 59.3598 35.5475 52.9804 39.2629L41.7345 45.813C41.1725 46.1402 40.601 46.3717 40.0045 46.5101C40.225 46.1555 40.3979 45.7545 40.5168 45.3109C41.0919 43.1641 39.816 40.9229 37.6121 40.2085C37.5693 40.1946 37.5256 40.1836 37.4812 40.1756C34.249 39.5926 31.059 38.4392 28.4957 37.5126C27.6055 37.1907 26.7646 36.8867 26.0495 36.6549C23.17 35.7207 20.5664 36.877 18.3996 38.1315L10.0349 42.9746L9.12175 41.3611C8.77325 40.7454 8.20425 40.3016 7.51937 40.1119C6.8345 39.9219 6.11825 40.0094 5.5025 40.3579L2.34712 42.1436C1.07274 42.865 0.622745 44.4885 1.34399 45.763L10.6205 62.1539C10.969 62.7696 11.5381 63.2132 12.223 63.4031C12.4599 63.4687 12.7004 63.5012 12.9394 63.5012C13.3912 63.5012 13.8371 63.385 14.2399 63.1571L17.3952 61.3714C18.011 61.0229 18.4546 60.4537 18.6445 59.769C18.8344 59.0841 18.747 58.3679 18.3985 57.7521L17.5684 56.2854L19.473 55.1857L33.8757 59.045C34.6895 59.2631 35.4883 59.372 36.2697 59.372C37.8279 59.372 39.3172 58.9392 40.7191 58.0761L61.1276 45.5095C62.9884 44.3634 63.5789 41.4754 62.366 39.45ZM16.7167 59.2346C16.6943 59.3177 16.6556 59.3955 16.6029 59.4634C16.5502 59.5314 16.4845 59.5883 16.4096 59.6307L13.2542 61.4166C13.1794 61.459 13.0968 61.486 13.0114 61.4962C12.926 61.5063 12.8395 61.4994 12.7567 61.4759C12.6737 61.4534 12.596 61.4148 12.528 61.3621C12.46 61.3094 12.4032 61.2437 12.3607 61.1689L3.08424 44.7779C3.04195 44.703 3.01492 44.6205 3.00473 44.5351C2.99454 44.4497 3.00138 44.3631 3.02487 44.2804C3.0473 44.1973 3.08598 44.1196 3.13868 44.0516C3.19138 43.9836 3.25704 43.9268 3.33187 43.8844L6.48725 42.0986C6.58435 42.0435 6.69411 42.0146 6.80575 42.0147C6.86537 42.0147 6.9255 42.0229 6.98487 42.0394C7.0679 42.0618 7.14565 42.1005 7.21362 42.1532C7.2816 42.2059 7.33844 42.2716 7.38087 42.3464L15.3432 56.4151L16.6574 58.7371C16.6997 58.812 16.7267 58.8945 16.7369 58.9799C16.7471 59.0653 16.7402 59.1519 16.7167 59.2346ZM60.0785 43.8064L39.67 56.373C38.052 57.369 36.2766 57.618 34.3929 57.113L19.59 53.1466C19.3338 53.0781 19.0609 53.114 18.8312 53.2465L16.5829 54.5446L11.0199 44.7151L19.4016 39.8622C21.2767 38.7765 23.305 37.867 25.4325 38.5571C26.116 38.7787 26.9037 39.0635 27.8157 39.3932C30.4311 40.3387 33.6814 41.514 37.054 42.1306C38.2281 42.5409 38.8846 43.675 38.585 44.7932C38.1909 46.2641 36.9652 46.4472 35.9901 46.3354C34.3336 45.9947 32.7595 45.5455 31.094 45.0699C30.3041 44.8442 29.4874 44.611 28.6477 44.386C28.3916 44.3173 28.1186 44.3533 27.8889 44.4859C27.6592 44.6185 27.4916 44.8369 27.423 45.0931C27.3544 45.3493 27.3903 45.6223 27.5229 45.8519C27.6555 46.0816 27.8739 46.2492 28.1301 46.3179C28.9539 46.5386 29.7626 46.7695 30.5447 46.9929C32.2612 47.4831 33.8825 47.9461 35.6284 48.303C36.8762 48.5557 38.2005 48.7575 39.4742 48.6199C40.63 48.495 41.7361 48.1262 42.7411 47.5411L53.987 40.991C57.2231 39.1062 59.714 38.9142 60.6503 40.4775C61.2954 41.5549 61.0069 43.2347 60.0785 43.8064ZM7.52712 45.4839C7.54852 45.6302 7.54087 45.7794 7.50462 45.9228C7.46837 46.0663 7.40423 46.2012 7.31585 46.3198C7.22747 46.4384 7.11659 46.5385 6.98954 46.6143C6.86249 46.6901 6.72175 46.7401 6.57537 46.7615C6.42899 46.7829 6.27982 46.7752 6.13639 46.739C5.99297 46.7027 5.85808 46.6386 5.73944 46.5502C5.62081 46.4618 5.52074 46.351 5.44495 46.2239C5.36916 46.0969 5.31914 45.9561 5.29775 45.8097C5.25453 45.5141 5.33053 45.2134 5.50902 44.9738C5.6875 44.7342 5.95386 44.5753 6.2495 44.5321C6.54513 44.4889 6.84582 44.5649 7.08542 44.7434C7.32502 44.9219 7.48391 45.1882 7.52712 45.4839ZM26.0551 35.5987H51.2684C51.5336 35.5987 51.7879 35.4934 51.9755 35.3058C52.163 35.1183 52.2684 34.864 52.2684 34.5987V23.1469C52.2684 20.2484 50.0446 18.0342 46.1674 17.0725C44.4965 16.658 42.8275 16.3811 41.1654 16.24C43.6075 14.9824 45.3346 11.9447 45.3346 8.40387C45.3349 4.14562 42.7779 1.50037 38.6619 1.50037C34.5459 1.50037 31.9889 4.14562 31.9889 8.40387C31.9889 11.9365 33.708 14.9686 36.1411 16.2315C34.4559 16.3709 32.7856 16.6529 31.1481 17.0746C27.2191 18.0846 25.0552 20.2411 25.0552 23.1469V34.5987C25.0552 34.7301 25.0811 34.8601 25.1313 34.9814C25.1816 35.1027 25.2552 35.213 25.3481 35.3058C25.4409 35.3987 25.5511 35.4724 25.6725 35.5226C25.7938 35.5729 25.9238 35.5987 26.0551 35.5987ZM33.9888 8.40387C33.9888 4.13737 36.9166 3.50037 38.6619 3.50037C40.4071 3.50037 43.3349 4.13737 43.3349 8.40387C43.3349 11.9637 41.2385 14.8599 38.6619 14.8599C36.0852 14.8599 33.9888 11.9637 33.9888 8.40387ZM27.0551 23.1467C27.0551 20.7042 29.5516 19.5499 31.646 19.0115C36.2175 17.8357 40.9411 17.8365 45.686 19.0136C47.3974 19.4381 50.2685 20.5396 50.2685 23.1467V33.5986H46.5399V25.7792C46.5399 25.514 46.4345 25.2597 46.247 25.0721C46.0594 24.8846 45.8051 24.7792 45.5399 24.7792C45.2747 24.7792 45.0203 24.8846 44.8328 25.0721C44.6452 25.2597 44.5399 25.514 44.5399 25.7792V33.5986H32.7837V25.7792C32.7837 25.514 32.6784 25.2597 32.4909 25.0721C32.3033 24.8846 32.049 24.7792 31.7837 24.7792C31.5185 24.7792 31.2642 24.8846 31.0766 25.0721C30.8891 25.2597 30.7837 25.514 30.7837 25.7792V33.5986H27.0552L27.0551 23.1467Z" fill="#4A4A4A"/>
</svg>
