<svg width="64" height="65" viewBox="0 0 64 65" fill="none" xmlns="http://www.w3.org/2000/svg">
<path d="M4 32.5004C4 17.0614 16.561 4.50039 32 4.50039C38.834 4.50039 45.288 6.93539 50.388 11.3864L46.802 11.8934C46.5438 11.9353 46.3123 12.0767 46.1572 12.2873C46.002 12.498 45.9355 12.761 45.972 13.02C46.0085 13.279 46.1451 13.5134 46.3524 13.673C46.5597 13.8325 46.8213 13.9044 47.081 13.8734L52.741 13.0724C52.785 13.0664 52.821 13.0414 52.863 13.0294C52.9943 12.996 53.1163 12.9335 53.22 12.8464C53.244 12.8274 53.273 12.8194 53.295 12.7984C53.311 12.7834 53.316 12.7624 53.331 12.7464C53.3834 12.6871 53.4284 12.6216 53.465 12.5514C53.49 12.5044 53.516 12.4604 53.533 12.4114C53.555 12.3449 53.5694 12.2761 53.576 12.2064C53.584 12.1444 53.59 12.0864 53.587 12.0244C53.585 11.9964 53.596 11.9704 53.592 11.9424L52.791 6.28239C52.7539 6.01969 52.6139 5.78251 52.4019 5.62301C52.1899 5.46351 51.9232 5.39476 51.6605 5.43189C51.3978 5.46902 51.1606 5.60899 51.0011 5.821C50.8416 6.03301 50.7729 6.29969 50.81 6.56239L51.221 9.46339C45.838 4.95739 39.11 2.49939 32 2.49939C15.458 2.50039 2 15.9584 2 32.5004C2 37.0424 2.985 41.3974 4.929 45.4434C4.98586 45.5618 5.06549 45.6678 5.16332 45.7554C5.26116 45.843 5.3753 45.9105 5.49922 45.954C5.62314 45.9975 5.75442 46.0162 5.88555 46.009C6.01669 46.0017 6.14511 45.9688 6.2635 45.9119C6.38189 45.855 6.48791 45.7754 6.57553 45.6776C6.66314 45.5797 6.73063 45.4656 6.77413 45.3417C6.81764 45.2177 6.83631 45.0865 6.82908 44.9553C6.82185 44.8242 6.78886 44.6958 6.732 44.5774C4.92 40.8044 4 36.7414 4 32.5004ZM57.737 19.0894C57.4979 19.2041 57.3142 19.4091 57.2263 19.6593C57.1383 19.9094 57.1533 20.1843 57.268 20.4234C59.08 24.1964 59.999 28.2594 59.999 32.5004C59.999 47.9394 47.438 60.5004 31.999 60.5004C25.165 60.5004 18.711 58.0654 13.611 53.6144L17.197 53.1074C17.4552 53.0655 17.6867 52.924 17.8419 52.7134C17.997 52.5028 18.0635 52.2398 18.027 51.9808C17.9905 51.7218 17.8539 51.4873 17.6466 51.3278C17.4393 51.1683 17.1777 51.0963 16.918 51.1274L11.258 51.9284C11.213 51.9344 11.176 51.9604 11.133 51.9724C11.0807 51.9863 11.0295 52.0044 10.98 52.0264C10.9079 52.0608 10.8404 52.1042 10.779 52.1554C10.755 52.1744 10.727 52.1814 10.704 52.2034C10.688 52.2184 10.683 52.2394 10.668 52.2554C10.6153 52.3145 10.5703 52.38 10.534 52.4504C10.509 52.4974 10.483 52.5414 10.466 52.5904C10.444 52.6569 10.4296 52.7257 10.423 52.7954C10.415 52.8574 10.409 52.9154 10.412 52.9774C10.414 53.0054 10.403 53.0314 10.407 53.0594L11.208 58.7194C11.2451 58.9821 11.3851 59.2193 11.5971 59.3788C11.8091 59.5383 12.0758 59.607 12.3385 59.5699C12.6012 59.5328 12.8384 59.3928 12.9979 59.1808C13.1574 58.9688 13.2261 58.7021 13.189 58.4394L12.778 55.5384C18.161 60.0444 24.889 62.5024 31.999 62.5024C48.541 62.5024 61.999 49.0444 61.999 32.5024C61.999 27.9604 61.014 23.6054 59.07 19.5594C59.0133 19.4409 58.9338 19.3348 58.836 19.2471C58.7382 19.1595 58.6241 19.0919 58.5002 19.0485C58.3762 19.005 58.2449 18.9864 58.1138 18.9938C57.9827 19.0011 57.8543 19.0343 57.736 19.0914L57.737 19.0894Z" fill="#4A4A4A"/>
<path d="M48.6923 36.1354C48.9316 36.1023 49.1508 35.9837 49.3095 35.8015C49.4681 35.6193 49.5554 35.3859 49.5553 35.1444V29.8554C49.5554 29.6138 49.4681 29.3804 49.3095 29.1982C49.1508 29.016 48.9316 28.8975 48.6923 28.8644L45.2483 28.3874C44.9963 27.5744 44.6713 26.7874 44.2763 26.0384L46.3743 23.2664C46.5201 23.0737 46.5911 22.8348 46.5744 22.5938C46.5577 22.3528 46.4543 22.126 46.2833 21.9554L42.5443 18.2154C42.3733 18.0449 42.1465 17.942 41.9057 17.9254C41.6648 17.9089 41.426 17.9799 41.2333 18.1254L38.4613 20.2234C37.7113 19.8284 36.9253 19.5034 36.1123 19.2514L35.6343 15.8064C35.6013 15.5672 35.4828 15.3482 35.3009 15.1896C35.1189 15.0309 34.8857 14.9435 34.6443 14.9434H29.3553C29.1139 14.9435 28.8808 15.0309 28.6988 15.1896C28.5168 15.3482 28.3984 15.5672 28.3653 15.8064L27.8873 19.2514C27.0753 19.5034 26.2883 19.8284 25.5383 20.2234L22.7663 18.1254C22.5736 17.9799 22.3349 17.9089 22.094 17.9254C21.8532 17.942 21.6263 18.0449 21.4553 18.2154L17.7163 21.9554C17.5454 22.126 17.442 22.3528 17.4252 22.5938C17.4085 22.8348 17.4796 23.0737 17.6253 23.2664L19.7233 26.0384C19.3283 26.7884 19.0033 27.5744 18.7513 28.3874L15.3073 28.8644C15.0681 28.8975 14.8488 29.016 14.6902 29.1982C14.5316 29.3804 14.4442 29.6138 14.4443 29.8554V35.1444C14.4442 35.3859 14.5316 35.6193 14.6902 35.8015C14.8488 35.9837 15.0681 36.1023 15.3073 36.1354L18.7513 36.6124C19.0033 37.4254 19.3283 38.2124 19.7233 38.9614L17.6253 41.7334C17.4796 41.926 17.4085 42.1649 17.4252 42.4059C17.442 42.6469 17.5454 42.8737 17.7163 43.0444L21.4553 46.7844C21.626 46.9554 21.8529 47.0587 22.094 47.0753C22.335 47.0918 22.5739 47.0204 22.7663 46.8744L25.5383 44.7764C26.2883 45.1724 27.0743 45.4974 27.8873 45.7494L28.3653 49.1934C28.3984 49.4325 28.5168 49.6515 28.6988 49.8102C28.8808 49.9688 29.1139 50.0562 29.3553 50.0564H34.6443C34.8857 50.0562 35.1189 49.9688 35.3009 49.8102C35.4828 49.6515 35.6013 49.4325 35.6343 49.1934L36.1123 45.7494C36.9237 45.4981 37.71 45.1724 38.4613 44.7764L41.2333 46.8744C41.4258 47.0204 41.6647 47.0918 41.9057 47.0753C42.1468 47.0587 42.3736 46.9554 42.5443 46.7844L46.2833 43.0444C46.4543 42.8737 46.5577 42.6469 46.5744 42.4059C46.5911 42.1649 46.5201 41.926 46.3743 41.7334L44.2763 38.9614C44.6713 38.2114 44.9963 37.4254 45.2483 36.6124L48.6923 36.1354ZM43.4953 35.4624C43.2191 36.5416 42.7912 37.5763 42.2243 38.5354C42.0173 38.8854 42.0423 39.3244 42.2863 39.6484L44.2523 42.2464L41.7453 44.7544L39.1463 42.7884C38.9881 42.6688 38.7979 42.5989 38.5999 42.5877C38.4019 42.5765 38.205 42.6244 38.0343 42.7254C37.0773 43.2914 36.0433 43.7194 34.9613 43.9974C34.7692 44.0469 34.5962 44.1524 34.4642 44.3006C34.3323 44.4488 34.2474 44.6328 34.2203 44.8294L33.7733 48.0584H30.2263L29.7793 44.8294C29.7519 44.633 29.6669 44.4491 29.535 44.301C29.4031 44.1529 29.2303 44.0473 29.0383 43.9974C27.9591 43.7205 26.9245 43.2922 25.9653 42.7254C25.7947 42.6241 25.5978 42.5761 25.3997 42.5873C25.2017 42.5985 25.0114 42.6685 24.8533 42.7884L22.2543 44.7544L19.7473 42.2464L21.7133 39.6484C21.833 39.4899 21.9028 39.2995 21.9138 39.1013C21.9248 38.9031 21.8766 38.7061 21.7753 38.5354C21.2091 37.576 20.7812 36.5414 20.5043 35.4624C20.4546 35.2702 20.349 35.0972 20.2009 34.9651C20.0528 34.833 19.8689 34.7479 19.6723 34.7204L16.4433 34.2734V30.7264L19.6723 30.2794C20.0743 30.2234 20.4023 29.9304 20.5043 29.5374C20.7804 28.4583 21.2083 27.424 21.7753 26.4654C21.8764 26.2946 21.9244 26.0976 21.9134 25.8994C21.9024 25.7013 21.8327 25.5109 21.7133 25.3524L19.7473 22.7544L22.2543 20.2464L24.8533 22.2124C25.0114 22.3323 25.2016 22.4024 25.3997 22.4136C25.5978 22.4248 25.7948 22.3767 25.9653 22.2754C26.9245 21.7085 27.9591 21.2803 29.0383 21.0034C29.2304 20.9541 29.4035 20.8488 29.5355 20.7008C29.6675 20.5528 29.7524 20.3688 29.7793 20.1724L30.2263 16.9434H33.7733L34.2203 20.1724C34.2476 20.3687 34.3326 20.5526 34.4645 20.7005C34.5964 20.8485 34.7694 20.9539 34.9613 21.0034C36.0443 21.2824 37.0783 21.7104 38.0343 22.2754C38.3813 22.4814 38.8213 22.4564 39.1463 22.2124L41.7453 20.2464L44.2523 22.7544L42.2863 25.3524C42.1667 25.5108 42.0969 25.7012 42.0859 25.8994C42.0748 26.0976 42.123 26.2946 42.2243 26.4654C42.7883 27.4194 43.2163 28.4534 43.4953 29.5374C43.5973 29.9304 43.9253 30.2234 44.3273 30.2794L47.5563 30.7264V34.2734L44.3273 34.7204C43.9253 34.7764 43.5973 35.0694 43.4953 35.4624Z" fill="#4A4A4A"/>
<path d="M32.0003 24.6113C27.6503 24.6113 24.1113 28.1503 24.1113 32.5003C24.1113 36.8503 27.6503 40.3893 32.0003 40.3893C36.3503 40.3893 39.8893 36.8503 39.8893 32.5003C39.8893 28.1503 36.3503 24.6113 32.0003 24.6113ZM32.0003 38.3883C28.7533 38.3883 26.1113 35.7463 26.1113 32.4993C26.1113 29.2523 28.7533 26.6103 32.0003 26.6103C35.2473 26.6103 37.8893 29.2523 37.8893 32.4993C37.8893 35.7463 35.2473 38.3883 32.0003 38.3883Z" fill="#4A4A4A"/>
</svg>
