<svg width="16" height="16" viewBox="0 0 16 16" fill="none" xmlns="http://www.w3.org/2000/svg">
<path d="M14.5 13.25H13.1775L9.35312 2.25375C9.30196 2.10656 9.20622 1.97896 9.0792 1.88868C8.95219 1.7984 8.80021 1.74993 8.64437 1.75H7.35563C7.19979 1.74993 7.04781 1.7984 6.9208 1.88868C6.79378 1.97896 6.69804 2.10656 6.64687 2.25375L2.8225 13.25H1.5C1.4337 13.25 1.37011 13.2763 1.32322 13.3232C1.27634 13.3701 1.25 13.4337 1.25 13.5C1.25 13.5663 1.27634 13.6299 1.32322 13.6768C1.37011 13.7237 1.4337 13.75 1.5 13.75H14.5C14.5663 13.75 14.6299 13.7237 14.6768 13.6768C14.7237 13.6299 14.75 13.5663 14.75 13.5C14.75 13.4337 14.7237 13.3701 14.6768 13.3232C14.6299 13.2763 14.5663 13.25 14.5 13.25ZM5.78625 6.25H10.2137L11.4306 9.75H4.56938L5.78625 6.25ZM7.11938 2.41812C7.13639 2.36902 7.16829 2.32644 7.21064 2.29631C7.25298 2.26618 7.30366 2.24999 7.35563 2.25H8.64437C8.69634 2.24999 8.74702 2.26618 8.78936 2.29631C8.83171 2.32644 8.86361 2.36902 8.88062 2.41812L10.0394 5.75H5.96063L7.11938 2.41812ZM4.395 10.25H11.605L12.6481 13.25H3.35188L4.395 10.25Z" fill="black"/>
</svg>
