<svg width="20" height="20" viewBox="0 0 20 20" fill="none" xmlns="http://www.w3.org/2000/svg">
<path d="M14.1667 13.5769L17.3783 16.7886C17.4566 16.8668 17.5005 16.9729 17.5005 17.0836C17.5005 17.1942 17.4566 17.3003 17.3783 17.3786C17.3001 17.4568 17.194 17.5008 17.0833 17.5008C16.9727 17.5008 16.8666 17.4568 16.7883 17.3786L13.5767 14.1661C12.2778 15.3119 10.584 15.9072 8.85388 15.826C7.12376 15.7448 5.49316 14.9935 4.30732 13.731C3.12148 12.4686 2.4735 10.7943 2.50057 9.06245C2.52765 7.33064 3.22765 5.67735 4.45238 4.45262C5.6771 3.2279 7.3304 2.52789 9.06221 2.50082C10.794 2.47374 12.4684 3.12172 13.7308 4.30756C14.9932 5.4934 15.7446 7.12401 15.8258 8.85413C15.907 10.5842 15.3125 12.2781 14.1667 13.5769ZM9.16667 15.0002C9.93272 15.0002 10.6913 14.8494 11.399 14.5562C12.1067 14.2631 12.7498 13.8334 13.2915 13.2917C13.8331 12.75 14.2628 12.107 14.556 11.3992C14.8491 10.6915 15 9.93296 15 9.16692C15 8.40087 14.8491 7.64233 14.556 6.9346C14.2628 6.22686 13.8331 5.5838 13.2915 5.04213C12.7498 4.50045 12.1067 4.07077 11.399 3.77762C10.6913 3.48447 9.93272 3.33358 9.16667 3.33358C7.61958 3.33358 6.13584 3.94816 5.04188 5.04213C3.94792 6.13609 3.33334 7.61982 3.33334 9.16692C3.33334 10.714 3.94792 12.1977 5.04188 13.2917C6.13584 14.3857 7.61958 15.0002 9.16667 15.0002Z" fill="white"/>
</svg>
